<?xml version="1.0" encoding="utf-8"?>
<!-- Generator: Adobe Illustrator 25.3.1, SVG Export Plug-In . SVG Version: 6.00 Build 0)  -->
<svg version="1.1" id="Capa_1" xmlns="http://www.w3.org/2000/svg" xmlns:xlink="http://www.w3.org/1999/xlink" x="0px" y="0px"
	 viewBox="0 0 98.7 88.5" style="enable-background:new 0 0 98.7 88.5;" xml:space="preserve">
<style type="text/css">
	.st0{fill:#F5A120;}
</style>
<path class="st0" d="M73.9,15.1c1.5,0,2.9-0.5,3.9-1.5L77,12.8c-0.9,0.9-1.9,1.3-3.1,1.3c-2.5,0-4.4-1.9-4.4-4.3s1.9-4.3,4.4-4.3
	c1.2,0,2.2,0.4,3.1,1.2l0.7-0.7c-0.9-1-2.3-1.5-3.8-1.5c-3.2,0-5.5,2.3-5.5,5.3S70.7,15.1,73.9,15.1z"/>
<path class="st0" d="M82.1,14.2c-1.3,0-2-0.6-2-1.5c0-0.8,0.5-1.4,2-1.4h2.5v1.3C84.2,13.7,83.3,14.2,82.1,14.2z M82.5,7.1
	c-1.2,0-2.4,0.4-3.2,1.1l0.5,0.8C80.4,8.3,81.4,8,82.4,8c1.5,0,2.2,0.7,2.2,2.1v0.5h-2.5c-2.3,0-3,1-3,2.2c0,1.4,1.1,2.3,2.9,2.3
	c1.3,0,2.2-0.5,2.7-1.3V15h1v-4.9C85.7,8.1,84.5,7.1,82.5,7.1z"/>
<path class="st0" d="M87.4,18c1.5,0,2.3-0.9,2.3-2.4V7.1h-1.1v8.5c0,1-0.5,1.5-1.3,1.5c-0.5,0-0.9-0.1-1.2-0.4l-0.4,0.8
	C86.1,17.8,86.8,18,87.4,18z M89.2,5.4C89.7,5.4,90,5,90,4.6c0-0.4-0.3-0.7-0.8-0.7s-0.8,0.3-0.8,0.8C88.4,5,88.8,5.4,89.2,5.4z"/>
<path class="st0" d="M95.1,14.2c-1.3,0-2-0.6-2-1.5c0-0.8,0.5-1.4,2-1.4h2.5v1.3C97.2,13.7,96.3,14.2,95.1,14.2z M95.5,7.1
	c-1.2,0-2.4,0.4-3.2,1.1l0.5,0.8C93.4,8.3,94.3,8,95.4,8c1.5,0,2.2,0.7,2.2,2.1v0.5h-2.5c-2.3,0-3,1-3,2.2c0,1.4,1.1,2.3,2.9,2.3
	c1.3,0,2.2-0.5,2.7-1.3V15h1v-4.9C98.7,8.1,97.5,7.1,95.5,7.1z"/>
<path class="st0" d="M51.3,62.6l-8.5-11.7l3.6-1.4l27-10.3L81.9,51L51.3,62.6z M73,75.3L42.4,86.9V52.6l8.1,11.2
	c0.1,0.2,0.3,0.3,0.5,0.3c0.1,0,0.2,0,0.2,0L73,55.8L73,75.3L73,75.3z M24,75.4L24,75.4C24.1,75.4,24.1,75.4,24,75.4
	C24.1,75.4,24.1,75.4,24,75.4c0.1,0.1,0.1,0.1,0.1,0.1c0,0,0.1,0,0.1,0.1c0,0,0,0,0.1,0c0,0,0.1,0,0.1,0c0,0,0,0,0,0
	c0.1,0,0.1,0,0.2,0c0,0,0.1,0,0.1,0l0,0c0,0,0,0,0.1,0l0,0c0,0,0,0,0.1,0c0,0,0,0,0,0c0,0,0,0,0,0l0,0l0,0l3.4-2.6V82l-7.6-2.8v-8.7
	L24,75.4z M10.6,55.8L32.3,64c0.1,0,0.2,0,0.2,0c0.2,0,0.4-0.1,0.5-0.3l8.1-11.2v34.3l-11.4-4.3v-11l0,0c0,0,0,0,0-0.1
	c0,0,0-0.1,0-0.1c0,0,0,0,0,0c0,0,0-0.1,0-0.1c0,0,0,0,0,0c0,0,0-0.1,0-0.1l0,0c0,0,0,0,0,0c0,0,0,0-0.1-0.1c0,0,0,0,0,0
	c0,0,0,0-0.1,0c0,0,0,0-0.1,0c0,0,0,0-0.1,0c0,0,0,0-0.1,0c0,0,0,0-0.1,0c0,0,0,0-0.1,0c0,0,0,0,0,0l0,0c0,0-0.1,0-0.1,0
	c0,0,0,0-0.1,0c0,0,0,0-0.1,0c0,0,0,0,0,0c0,0,0,0-0.1,0c0,0,0,0,0,0c0,0,0,0,0,0L24.8,74l-4.1-6.1l0,0c0,0,0,0,0,0
	c-0.1-0.1-0.2-0.2-0.3-0.2l0,0c-0.1,0-0.2-0.1-0.3-0.1l0,0c0,0-0.1,0-0.1,0c0,0,0,0,0,0c0,0-0.1,0-0.1,0c0,0,0,0-0.1,0c0,0,0,0,0,0
	l0,0c0,0-0.1,0-0.1,0.1c0,0,0,0-0.1,0.1c0,0,0,0,0,0c0,0,0,0,0,0.1c0,0,0,0,0,0.1c0,0,0,0,0,0.1c0,0,0,0.1,0,0.1c0,0,0,0.1,0,0.1v0
	v10.4l-8.9-3.4L10.6,55.8L10.6,55.8z M10.2,39.2l28.6,10.9l2,0.8l-8.5,11.7L1.7,51L10.2,39.2z M35.9,35.2c1.3,0,2.6-0.3,4-1v6.5
	c-4.7,0.1-9,1.5-12.3,3.7l-15.7-6l17.9-6.4C31.2,33.8,33.2,35.2,35.9,35.2z M32.3,26.3c4.5,0,7,2.1,7.5,6.4
	c-1.4,0.8-2.7,1.2-3.9,1.2h0c-4.4,0-7-5.2-7.8-7C29,26.7,30.6,26.3,32.3,26.3z M31,10.9c0-5.3,4.3-9.6,9.6-9.6
	c5.3,0,9.6,4.3,9.6,9.6s-4.3,9.6-9.6,9.6C35.2,20.4,31,16.2,31,10.9z M45.1,35.2c3,0,5.3-1.9,6.8-3.9l19.8,7.1L54.6,45
	c-3.4-2.6-8.2-4.2-13.4-4.3v-6.5C42.5,34.9,43.9,35.2,45.1,35.2z M48.7,26.3c1.7,0,3.3,0.3,4.1,0.5c-0.8,1.9-3.3,7-7.8,7
	c-1.2,0-2.6-0.4-3.9-1.2C41.7,28.5,44.2,26.3,48.7,26.3z M40.5,42c0.1,0,0.1,0,0.2,0c4.7,0,9.2,1.3,12.4,3.5l-11.3,4.3L29.1,45
	C32.2,43.1,36.3,42,40.5,42z M83.4,50.9L74.2,38c0,0,0,0-0.1-0.1l0,0c0,0,0,0-0.1-0.1l0,0c0,0,0,0-0.1,0c0,0,0,0,0,0l0,0
	c0,0,0,0,0,0h0c0,0,0,0,0,0l-21.2-7.6c1.1-1.8,1.7-3.4,1.7-3.6c0.1-0.2,0-0.3,0-0.5c-0.1-0.2-0.2-0.3-0.4-0.3
	c-0.1,0-2.5-0.8-5.2-0.8c-3.5,0-6.1,1.3-7.6,3.6v-6.9c5.7-0.3,10.2-5.1,10.2-10.9c0-6-4.9-10.9-10.9-10.9S29.6,4.9,29.6,10.9
	c0,5.8,4.5,10.5,10.2,10.9v6.9c-1.5-2.4-4-3.6-7.6-3.6c-2.8,0-5.1,0.8-5.2,0.8c-0.2,0.1-0.3,0.2-0.4,0.3c-0.1,0.2-0.1,0.3,0,0.5
	c0.1,0.2,0.8,2.2,2.2,4.3L9.7,37.8c0,0-0.1,0-0.1,0h0c-0.1,0-0.1,0.1-0.2,0.1l0,0l0,0c0,0,0,0-0.1,0.1l0,0L0.1,50.9
	C0,51.1,0,51.3,0,51.5c0.1,0.2,0.2,0.4,0.4,0.4l8.8,3.4v20.5c0,0.3,0.2,0.5,0.4,0.6l31.8,12.1l0,0c0,0,0,0,0.1,0c0,0,0,0,0,0
	c0,0,0.1,0,0.1,0h0h0c0,0,0.1,0,0.1,0l0,0c0,0,0,0,0.1,0l0,0l31.8-12.1c0.3-0.1,0.4-0.3,0.4-0.6V55.3l8.8-3.4
	c0.2-0.1,0.3-0.2,0.4-0.4C83.6,51.3,83.6,51.1,83.4,50.9z"/>
<path class="st0" d="M41.4,18.5v-1.4c1.6-0.3,2.8-1.7,2.8-3.4c0-1.9-1.5-3.5-3.5-3.5h-0.4c-1.2,0-2.1-1-2.1-2.1s1-2.1,2.1-2.1h2.8
	c0.4,0,0.7-0.3,0.7-0.7s-0.3-0.7-0.7-0.7h-1.7V3.3c0-0.4-0.3-0.7-0.7-0.7s-0.7,0.3-0.7,0.7v1.3c-1.8,0.1-3.2,1.6-3.2,3.4
	c0,1.9,1.5,3.5,3.5,3.5h0.4c1.2,0,2.1,1,2.1,2.1s-1,2.1-2.1,2.1h0h0h-2.8c-0.4,0-0.7,0.3-0.7,0.7s0.3,0.7,0.7,0.7h2.1v1.3
	c0,0.4,0.3,0.7,0.7,0.7C41.1,19.1,41.4,18.8,41.4,18.5z"/>
</svg>
