<?xml version="1.0" encoding="utf-8"?>
<!-- Generator: Adobe Illustrator 25.3.1, SVG Export Plug-In . SVG Version: 6.00 Build 0)  -->
<svg version="1.1" id="Capa_1" xmlns="http://www.w3.org/2000/svg" xmlns:xlink="http://www.w3.org/1999/xlink" x="0px" y="0px"
	 viewBox="0 0 180.6 138.3" style="enable-background:new 0 0 180.6 138.3;" xml:space="preserve">
<style type="text/css">
	.st0{fill:#030404;}
	.st1{fill:#040505;}
</style>
<path class="st0" d="M9.1,138.3c2.9,0,5.4-1.1,6.9-3l-2.5-2.3c-1.1,1.3-2.5,2-4.2,2c-3.1,0-5.4-2.2-5.4-5.4c0-3.2,2.2-5.4,5.4-5.4
	c1.7,0,3.1,0.7,4.2,2l2.5-2.3c-1.6-1.9-4-3-6.9-3c-5.2,0-9.1,3.6-9.1,8.7C0,134.7,3.9,138.3,9.1,138.3z"/>
<path class="st0" d="M23.2,135.7c-1.3,0-2.1-0.6-2.1-1.6c0-0.9,0.6-1.5,2.3-1.5H26v1.3C25.5,135.1,24.5,135.7,23.2,135.7z
	 M23.5,124.9c-2.1,0-4.2,0.6-5.6,1.6l1.3,2.6c0.9-0.7,2.4-1.2,3.7-1.2c2,0,3,0.9,3,2.5h-3c-3.9,0-5.5,1.6-5.5,3.9
	c0,2.2,1.8,3.9,4.8,3.9c1.9,0,3.2-0.6,3.9-1.8v1.6h3.5v-7.4C29.7,126.7,27.4,124.9,23.5,124.9z"/>
<path class="st0" d="M40.9,124.9c-1.8,0-3.3,0.6-4.3,1.7v-1.5h-3.6V138h3.7v-6.4c0-2.4,1.3-3.5,3.1-3.5c1.7,0,2.6,1,2.6,3v6.8h3.7
	v-7.4C46.3,126.7,44,124.9,40.9,124.9z"/>
<path class="st0" d="M56.1,138.2c2.7,0,4.8-1.2,5.8-3.3l-2.9-1.6c-0.7,1.2-1.7,1.8-2.9,1.8c-1.9,0-3.4-1.3-3.4-3.6s1.5-3.6,3.4-3.6
	c1.2,0,2.2,0.6,2.9,1.8l2.9-1.6c-0.9-2.1-3.1-3.3-5.8-3.3c-4.2,0-7.2,2.8-7.2,6.6S51.9,138.2,56.1,138.2z"/>
<path class="st0" d="M69.8,127.7c1.7,0,2.9,1.1,3.2,2.7h-6.4C66.9,128.8,68.1,127.7,69.8,127.7z M76.5,131.6c0-4.2-2.9-6.7-6.7-6.7
	c-3.9,0-6.9,2.8-6.9,6.6c0,3.8,2.9,6.6,7.4,6.6c2.3,0,4.1-0.7,5.3-2.1l-2-2.2c-0.9,0.8-1.9,1.2-3.2,1.2c-2,0-3.3-1-3.7-2.6h9.8
	C76.4,132.3,76.5,131.9,76.5,131.6z"/>
<rect x="79" y="120.2" class="st0" width="3.7" height="17.8"/>
<path class="st0" d="M91.1,135.7c-1.3,0-2.1-0.6-2.1-1.6c0-0.9,0.6-1.5,2.3-1.5h2.6v1.3C93.5,135.1,92.4,135.7,91.1,135.7z
	 M91.4,124.9c-2.1,0-4.2,0.6-5.6,1.6l1.3,2.6c0.9-0.7,2.4-1.2,3.7-1.2c2,0,3,0.9,3,2.5h-3c-3.9,0-5.5,1.6-5.5,3.9
	c0,2.2,1.8,3.9,4.8,3.9c1.9,0,3.2-0.6,3.9-1.8v1.6h3.5v-7.4C97.6,126.7,95.4,124.9,91.4,124.9z"/>
<path class="st0" d="M107.4,138.2c2.7,0,4.8-1.2,5.8-3.3l-2.9-1.6c-0.7,1.2-1.7,1.8-2.9,1.8c-1.9,0-3.4-1.3-3.4-3.6s1.5-3.6,3.4-3.6
	c1.2,0,2.2,0.6,2.9,1.8l2.9-1.6c-0.9-2.1-3.1-3.3-5.8-3.3c-4.2,0-7.2,2.8-7.2,6.6S103.2,138.2,107.4,138.2z"/>
<path class="st0" d="M115.3,138h3.7v-12.9h-3.7V138z M117.2,123.3c1.4,0,2.3-0.9,2.3-2.2c0-1.2-0.9-2-2.3-2s-2.3,0.9-2.3,2.1
	C114.9,122.4,115.8,123.3,117.2,123.3z"/>
<path class="st0" d="M128.7,135.1c-1.9,0-3.3-1.3-3.3-3.6s1.4-3.6,3.3-3.6c1.9,0,3.3,1.3,3.3,3.6S130.6,135.1,128.7,135.1z
	 M128.7,138.2c4.1,0,7.1-2.8,7.1-6.6s-3-6.6-7.1-6.6s-7.1,2.8-7.1,6.6S124.6,138.2,128.7,138.2z"/>
<path class="st0" d="M146.1,124.9c-1.8,0-3.3,0.6-4.3,1.7v-1.5h-3.6V138h3.7v-6.4c0-2.4,1.3-3.5,3.1-3.5c1.7,0,2.6,1,2.6,3v6.8h3.7
	v-7.4C151.5,126.7,149.2,124.9,146.1,124.9z"/>
<path class="st0" d="M161,127.7c1.7,0,2.9,1.1,3.2,2.7h-6.4C158,128.8,159.3,127.7,161,127.7z M167.7,131.6c0-4.2-2.9-6.7-6.7-6.7
	c-3.9,0-6.9,2.8-6.9,6.6c0,3.8,2.9,6.6,7.4,6.6c2.3,0,4.1-0.7,5.3-2.1l-2-2.2c-0.9,0.8-1.9,1.2-3.2,1.2c-2,0-3.3-1-3.7-2.6h9.8
	C167.6,132.3,167.7,131.9,167.7,131.6z"/>
<path class="st0" d="M174.5,138.2c3.9,0,6.1-1.7,6.1-4.1c0-5.1-7.8-3-7.8-5.2c0-0.7,0.7-1.2,2.4-1.2c1.2,0,2.4,0.2,3.7,1l1.2-2.7
	c-1.2-0.7-3.2-1.1-5-1.1c-3.8,0-6,1.7-6,4.2c0,5.2,7.8,3,7.8,5.1c0,0.7-0.6,1.2-2.4,1.2c-1.6,0-3.3-0.5-4.5-1.2l-1.2,2.7
	C170.1,137.6,172.3,138.2,174.5,138.2z"/>
<path class="st1" d="M97.9,28.7c-0.4,0-0.7-0.1-1-0.4l-6.6-6.6l-6.3,6.5c-0.4,0.4-1,0.5-1.5,0.3c-0.5-0.2-0.9-0.7-0.9-1.3V2.7
	c0-0.8,0.6-1.4,1.4-1.4c0.8,0,1.4,0.6,1.4,1.4v21.1l4.9-5c0.3-0.3,0.6-0.4,1-0.4h0c0.4,0,0.7,0.1,1,0.4l5.2,5.2V2.7
	c0-0.8,0.6-1.4,1.4-1.4c0.8,0,1.4,0.6,1.4,1.4v24.6c0,0.6-0.3,1.1-0.8,1.3C98.3,28.7,98.1,28.7,97.9,28.7z"/>
<path class="st1" d="M129.9,82.3h-12.8c-0.8,0-1.4-0.6-1.4-1.4c0-0.8,0.6-1.4,1.4-1.4h11.4V35.9c0-0.8,0.6-1.4,1.4-1.4
	c0.8,0,1.4,0.6,1.4,1.4v44.9C131.3,81.6,130.7,82.3,129.9,82.3z"/>
<path class="st1" d="M50.4,63.3c-0.8,0-1.4-0.6-1.4-1.4V1.4c0-0.8,0.6-1.4,1.4-1.4h79.5c0.8,0,1.4,0.6,1.4,1.4v24.8
	c0,0.8-0.6,1.4-1.4,1.4c-0.8,0-1.4-0.6-1.4-1.4V2.7H51.8v59.2C51.8,62.7,51.2,63.3,50.4,63.3z"/>
<path class="st1" d="M75.7,82.3H50.4c-0.8,0-1.4-0.6-1.4-1.4V70.3c0-0.8,0.6-1.4,1.4-1.4c0.8,0,1.4,0.6,1.4,1.4v9.2h23.9
	c0.8,0,1.4,0.6,1.4,1.4C77.1,81.6,76.4,82.3,75.7,82.3z"/>
<path class="st1" d="M96.3,62.6c-8.1,0-15.6,5.3-17.9,13.5c-1.4,4.8-0.8,9.8,1.6,14.1c2.4,4.3,6.4,7.5,11.2,8.8
	c4.8,1.4,9.8,0.8,14.1-1.6c4.3-2.4,7.5-6.4,8.8-11.1c1.4-4.8,0.8-9.8-1.6-14.1c-2.4-4.3-6.4-7.5-11.1-8.8
	C99.7,62.9,98,62.6,96.3,62.6z M96.4,102.6c-2,0-3.9-0.3-5.9-0.8c-5.5-1.6-10-5.2-12.8-10.1c-2.8-5-3.4-10.7-1.9-16.2
	c3.2-11.3,15-17.9,26.3-14.7c5.5,1.6,10,5.2,12.8,10.1c2.8,5,3.4,10.7,1.9,16.2c-1.6,5.5-5.2,10-10.1,12.8
	C103.5,101.6,99.9,102.6,96.4,102.6z"/>
<path class="st1" d="M98.3,81.2l4.6-4.6c0.5-0.5,0.5-1.4,0-1.9c-0.5-0.5-1.4-0.5-1.9,0l-4.6,4.6l-4.6-4.6c-0.5-0.5-1.4-0.5-1.9,0
	c-0.5,0.5-0.5,1.4,0,1.9l4.6,4.6l-4.6,4.6c-0.5,0.5-0.5,1.4,0,1.9c0.3,0.3,0.6,0.4,1,0.4c0.4,0,0.7-0.1,1-0.4l4.6-4.6l4.6,4.6
	c0.3,0.3,0.6,0.4,1,0.4c0.4,0,0.7-0.1,1-0.4c0.5-0.5,0.5-1.4,0-1.9L98.3,81.2z"/>
</svg>
