<?xml version="1.0" encoding="utf-8"?>
<!-- Generator: Adobe Illustrator 25.3.1, SVG Export Plug-In . SVG Version: 6.00 Build 0)  -->
<svg version="1.1" id="Capa_1" xmlns="http://www.w3.org/2000/svg" xmlns:xlink="http://www.w3.org/1999/xlink" x="0px" y="0px"
	 viewBox="0 0 120.1 138.2" style="enable-background:new 0 0 120.1 138.2;" xml:space="preserve">
<style type="text/css">
	.st0{fill:#F18E28;}
</style>
<polygon class="st0" points="24.9,134.9 24.9,131 32.7,131 32.7,128 24.9,128 24.9,124.3 33.7,124.3 33.7,121.2 21,121.2 21,138 
	34,138 34,134.9 "/>
<path class="st0" d="M44.7,124.9c-1.8,0-3.3,0.6-4.3,1.7v-1.5h-3.6V138h3.7v-6.4c0-2.4,1.3-3.5,3.1-3.5c1.7,0,2.6,1,2.6,3v6.8H50
	v-7.4C50,126.7,47.7,124.9,44.7,124.9z"/>
<polygon class="st0" points="62.4,125.1 58.7,133.9 55.1,125.1 51.3,125.1 56.7,138 60.5,138 66,125.1 "/>
<path class="st0" d="M67.5,138h3.7v-12.9h-3.7V138z M67.2,123.4h2.9l4.3-3.5h-4L67.2,123.4z"/>
<path class="st0" d="M80.9,135.1c-1.9,0-3.3-1.3-3.3-3.6s1.4-3.6,3.3-3.6s3.3,1.3,3.3,3.6S82.8,135.1,80.9,135.1z M80.9,138.2
	c4.1,0,7.1-2.8,7.1-6.6s-3-6.6-7.1-6.6s-7.1,2.8-7.1,6.6S76.8,138.2,80.9,138.2z"/>
<path class="st0" d="M94.8,138.2c3.9,0,6.1-1.7,6.1-4.1c0-5.1-7.8-3-7.8-5.2c0-0.7,0.7-1.2,2.4-1.2c1.2,0,2.4,0.2,3.7,1l1.2-2.7
	c-1.2-0.7-3.2-1.1-5-1.1c-3.8,0-6,1.7-6,4.2c0,5.2,7.8,3,7.8,5.1c0,0.7-0.6,1.2-2.4,1.2c-1.6,0-3.3-0.5-4.5-1.2l-1.2,2.7
	C90.4,137.6,92.6,138.2,94.8,138.2z"/>
<path class="st0" d="M118.6,48.9h-14.8c-0.7,0-1.3-0.6-1.3-1.3c0-0.7,0.6-1.3,1.3-1.3h13.7v-8.3H2.6v8.3h92.5c0.7,0,1.3,0.6,1.3,1.3
	c0,0.7-0.6,1.3-1.3,1.3H1.5c-0.8,0-1.5-0.7-1.5-1.5V36.9c0-0.8,0.7-1.5,1.5-1.5h117.1c0.8,0,1.5,0.7,1.5,1.5v10.5
	C120.1,48.3,119.4,48.9,118.6,48.9z"/>
<path class="st0" d="M56.5,38.1c-0.7,0-1.3-0.6-1.3-1.3V2.6H16.3v34.2c0,0.7-0.6,1.3-1.3,1.3c-0.7,0-1.3-0.6-1.3-1.3V1.3
	C13.7,0.6,14.3,0,15,0h41.5c0.7,0,1.3,0.6,1.3,1.3v35.5C57.8,37.5,57.2,38.1,56.5,38.1z"/>
<path class="st0" d="M105.1,38.1c-0.7,0-1.3-0.6-1.3-1.3V2.6H64.9v34.2c0,0.7-0.6,1.3-1.3,1.3c-0.7,0-1.3-0.6-1.3-1.3V1.3
	c0-0.7,0.6-1.3,1.3-1.3h41.5c0.7,0,1.3,0.6,1.3,1.3v35.5C106.4,37.5,105.8,38.1,105.1,38.1z"/>
<path class="st0" d="M40.2,14.1c-0.3,0-0.6-0.1-0.8-0.3l-3.7-2.9l-3.6,2.9c-0.4,0.3-0.9,0.4-1.4,0.2c-0.4-0.2-0.7-0.7-0.7-1.2V1.3
	C30,0.6,30.6,0,31.3,0c0.7,0,1.3,0.6,1.3,1.3v8.8l2.3-1.8c0.5-0.4,1.1-0.4,1.6,0l2.4,1.9V1.3c0-0.7,0.6-1.3,1.3-1.3
	c0.7,0,1.3,0.6,1.3,1.3v11.5c0,0.5-0.3,0.9-0.7,1.2C40.6,14.1,40.4,14.1,40.2,14.1z"/>
<path class="st0" d="M88.8,14.1c-0.3,0-0.6-0.1-0.8-0.3l-3.7-2.9l-3.6,2.9c-0.4,0.3-0.9,0.4-1.4,0.2c-0.4-0.2-0.7-0.7-0.7-1.2V1.3
	c0-0.7,0.6-1.3,1.3-1.3c0.7,0,1.3,0.6,1.3,1.3v8.8l2.3-1.8c0.5-0.4,1.1-0.4,1.6,0l2.4,1.9V1.3c0-0.7,0.6-1.3,1.3-1.3
	c0.7,0,1.3,0.6,1.3,1.3v11.5c0,0.5-0.3,0.9-0.7,1.2C89.2,14.1,89,14.1,88.8,14.1z"/>
<path class="st0" d="M118.6,105.5H24.9c-0.7,0-1.3-0.6-1.3-1.3c0-0.7,0.6-1.3,1.3-1.3h92.6v-8.3H2.6v8.3h10.3c0.7,0,1.3,0.6,1.3,1.3
	c0,0.7-0.6,1.3-1.3,1.3H1.5c-0.8,0-1.5-0.7-1.5-1.5V93.5C0,92.7,0.7,92,1.5,92h117.1c0.8,0,1.5,0.7,1.5,1.5V104
	C120.1,104.8,119.4,105.5,118.6,105.5z"/>
<path class="st0" d="M56.5,94.6c-0.7,0-1.3-0.6-1.3-1.3V59.1H16.3v34.2c0,0.7-0.6,1.3-1.3,1.3c-0.7,0-1.3-0.6-1.3-1.3V57.8
	c0-0.7,0.6-1.3,1.3-1.3h41.5c0.7,0,1.3,0.6,1.3,1.3v35.5C57.8,94,57.2,94.6,56.5,94.6z"/>
<path class="st0" d="M105.1,94.6c-0.7,0-1.3-0.6-1.3-1.3V59.1H64.9v34.2c0,0.7-0.6,1.3-1.3,1.3c-0.7,0-1.3-0.6-1.3-1.3V57.8
	c0-0.7,0.6-1.3,1.3-1.3h41.5c0.7,0,1.3,0.6,1.3,1.3v35.5C106.4,94,105.8,94.6,105.1,94.6z"/>
<path class="st0" d="M40.2,70.7c-0.3,0-0.6-0.1-0.8-0.3l-3.7-2.9l-3.6,2.9c-0.4,0.3-0.9,0.4-1.4,0.2c-0.4-0.2-0.7-0.7-0.7-1.2V57.8
	c0-0.7,0.6-1.3,1.3-1.3c0.7,0,1.3,0.6,1.3,1.3v8.8l2.3-1.8c0.5-0.4,1.1-0.4,1.6,0l2.4,1.9v-8.9c0-0.7,0.6-1.3,1.3-1.3
	c0.7,0,1.3,0.6,1.3,1.3v11.5c0,0.5-0.3,0.9-0.7,1.2C40.6,70.6,40.4,70.7,40.2,70.7z"/>
<path class="st0" d="M88.8,70.7c-0.3,0-0.6-0.1-0.8-0.3l-3.7-2.9l-3.6,2.9c-0.4,0.3-0.9,0.4-1.4,0.2c-0.4-0.2-0.7-0.7-0.7-1.2V57.8
	c0-0.7,0.6-1.3,1.3-1.3c0.7,0,1.3,0.6,1.3,1.3v8.8l2.3-1.8c0.5-0.4,1.1-0.4,1.6,0l2.4,1.9v-8.9c0-0.7,0.6-1.3,1.3-1.3
	c0.7,0,1.3,0.6,1.3,1.3v11.5c0,0.5-0.3,0.9-0.7,1.2C89.2,70.6,89,70.7,88.8,70.7z"/>
</svg>
