<?xml version="1.0" encoding="utf-8"?>
<!-- Generator: Adobe Illustrator 25.3.1, SVG Export Plug-In . SVG Version: 6.00 Build 0)  -->
<svg version="1.1" id="Capa_1" xmlns="http://www.w3.org/2000/svg" xmlns:xlink="http://www.w3.org/1999/xlink" x="0px" y="0px"
	 viewBox="0 0 178.1 138.2" style="enable-background:new 0 0 178.1 138.2;" xml:space="preserve">
<style type="text/css">
	.st0{fill:#030404;}
	.st1{fill:#040505;}
</style>
<path class="st0" d="M10.6,127.3c0,1.8-1.2,2.9-3.6,2.9H3.9v-5.9h3.2C9.4,124.4,10.6,125.4,10.6,127.3z M14.9,138l-3.8-5.4
	c2.2-0.9,3.5-2.8,3.5-5.3c0-3.8-2.8-6.1-7.3-6.1H0V138h3.9v-4.7h3.4h0.2l3.2,4.7H14.9z"/>
<path class="st0" d="M23.3,127.7c1.7,0,2.9,1.1,3.2,2.7h-6.4C20.4,128.8,21.6,127.7,23.3,127.7z M30,131.6c0-4.2-2.9-6.7-6.7-6.7
	c-3.9,0-6.9,2.8-6.9,6.6c0,3.8,2.9,6.6,7.4,6.6c2.3,0,4.1-0.7,5.3-2.1l-2-2.2c-0.9,0.8-1.9,1.2-3.2,1.2c-2,0-3.3-1-3.7-2.6H30
	C30,132.3,30,131.9,30,131.6z"/>
<path class="st0" d="M38.8,138.2c2.7,0,4.8-1.2,5.8-3.3l-2.9-1.6c-0.7,1.2-1.7,1.8-2.9,1.8c-1.9,0-3.4-1.3-3.4-3.6s1.5-3.6,3.4-3.6
	c1.2,0,2.2,0.6,2.9,1.8l2.9-1.6c-0.9-2.1-3.1-3.3-5.8-3.3c-4.2,0-7.2,2.8-7.2,6.6C31.6,135.4,34.6,138.2,38.8,138.2z"/>
<path class="st0" d="M52.7,135.1c-1.9,0-3.3-1.3-3.3-3.6s1.4-3.6,3.3-3.6c1.9,0,3.3,1.3,3.3,3.6S54.6,135.1,52.7,135.1z M52.7,138.2
	c4.1,0,7.1-2.8,7.1-6.6c0-3.9-3-6.6-7.1-6.6s-7.1,2.8-7.1,6.6C45.6,135.4,48.6,138.2,52.7,138.2z"/>
<rect x="62.3" y="120.2" class="st0" width="3.7" height="17.8"/>
<path class="st0" d="M75.4,127.7c1.7,0,2.9,1.1,3.2,2.7h-6.4C72.5,128.8,73.7,127.7,75.4,127.7z M82.1,131.6c0-4.2-2.9-6.7-6.7-6.7
	c-3.9,0-6.9,2.8-6.9,6.6c0,3.8,2.9,6.6,7.4,6.6c2.3,0,4.1-0.7,5.3-2.1l-2-2.2c-0.9,0.8-1.9,1.2-3.2,1.2c-2,0-3.3-1-3.7-2.6h9.8
	C82.1,132.3,82.1,131.9,82.1,131.6z"/>
<path class="st0" d="M90.9,138.2c2.7,0,4.8-1.2,5.8-3.3l-2.9-1.6c-0.7,1.2-1.7,1.8-2.9,1.8c-1.9,0-3.4-1.3-3.4-3.6s1.5-3.6,3.4-3.6
	c1.2,0,2.2,0.6,2.9,1.8l2.9-1.6c-0.9-2.1-3.1-3.3-5.8-3.3c-4.2,0-7.2,2.8-7.2,6.6C83.7,135.4,86.7,138.2,90.9,138.2z"/>
<path class="st0" d="M104.9,138.2c2.7,0,4.8-1.2,5.8-3.3l-2.9-1.6c-0.7,1.2-1.7,1.8-2.9,1.8c-1.9,0-3.4-1.3-3.4-3.6s1.5-3.6,3.4-3.6
	c1.2,0,2.2,0.6,2.9,1.8l2.9-1.6c-0.9-2.1-3.1-3.3-5.8-3.3c-4.2,0-7.2,2.8-7.2,6.6C97.7,135.4,100.7,138.2,104.9,138.2z"/>
<path class="st0" d="M112.8,138h3.7v-12.9h-3.7V138z M114.7,123.3c1.4,0,2.3-0.9,2.3-2.2c0-1.2-0.9-2-2.3-2s-2.3,0.9-2.3,2.1
	C112.4,122.4,113.3,123.3,114.7,123.3z"/>
<path class="st0" d="M126.2,135.1c-1.9,0-3.3-1.3-3.3-3.6s1.4-3.6,3.3-3.6c1.9,0,3.3,1.3,3.3,3.6S128.1,135.1,126.2,135.1z
	 M126.2,138.2c4.1,0,7.1-2.8,7.1-6.6c0-3.9-3-6.6-7.1-6.6s-7.1,2.8-7.1,6.6C119.1,135.4,122.1,138.2,126.2,138.2z"/>
<path class="st0" d="M143.6,124.9c-1.8,0-3.3,0.6-4.3,1.7v-1.5h-3.6V138h3.7v-6.4c0-2.4,1.3-3.5,3.1-3.5c1.7,0,2.6,1,2.6,3v6.8h3.7
	v-7.4C149,126.7,146.7,124.9,143.6,124.9z"/>
<path class="st0" d="M158.4,127.7c1.7,0,2.9,1.1,3.2,2.7h-6.4C155.5,128.8,156.7,127.7,158.4,127.7z M165.1,131.6
	c0-4.2-2.9-6.7-6.7-6.7c-3.9,0-6.9,2.8-6.9,6.6c0,3.8,2.9,6.6,7.4,6.6c2.3,0,4.1-0.7,5.3-2.1l-2-2.2c-0.9,0.8-1.9,1.2-3.2,1.2
	c-2,0-3.3-1-3.7-2.6h9.8C165.1,132.3,165.1,131.9,165.1,131.6z"/>
<path class="st0" d="M172,138.2c3.9,0,6.1-1.7,6.1-4.1c0-5.1-7.8-3-7.8-5.2c0-0.7,0.7-1.2,2.4-1.2c1.2,0,2.4,0.2,3.7,1l1.2-2.7
	c-1.2-0.7-3.2-1.1-5-1.1c-3.8,0-6,1.7-6,4.2c0,5.2,7.8,3,7.8,5.1c0,0.7-0.6,1.2-2.4,1.2c-1.6,0-3.3-0.5-4.5-1.2l-1.2,2.7
	C167.6,137.6,169.8,138.2,172,138.2z"/>
<path class="st1" d="M123.9,100c-9.7,0-17.5-7.9-17.5-17.5c0-9.7,7.9-17.5,17.5-17.5s17.5,7.9,17.5,17.5
	C141.4,92.1,133.5,100,123.9,100z M155.5,73.1l-11.6-40.8c-0.2-0.7-0.9-1.1-1.6-0.9c-0.7,0.2-1.1,0.9-0.9,1.6l11.2,39.5l-10,2.8
	c-2.9-7.6-10.2-13.1-18.8-13.1c-11.1,0-20.1,9-20.1,20.1c0,1.3,0.1,2.7,0.4,3.9l-21.1,6L80.7,84c-0.2-0.7-0.9-1.1-1.6-0.9
	c-0.7,0.2-1.1,0.9-0.9,1.6l2.7,9.6c0.2,0.6,0.7,0.9,1.2,0.9c0.1,0,0.2,0,0.4,0l22.3-6.3c2.7,7.9,10.2,13.7,19,13.7
	c11.1,0,20.1-9,20.1-20.1c0-1.6-0.2-3.1-0.5-4.6l11.2-3.2c0.3-0.1,0.6-0.3,0.8-0.6C155.6,73.8,155.6,73.4,155.5,73.1z"/>
<path class="st1" d="M109.3,30.4l-6.1-3.4c-0.3-0.2-0.7-0.2-1-0.1c-0.3,0.1-0.6,0.3-0.8,0.6l-3.2,5.9l-5.4-19.1l11-3.1L109.3,30.4z
	 M78.5,76.4L63.2,22.7L90.4,15l6.3,22.2c0.1,0.5,0.6,0.9,1.1,0.9c0,0,0.1,0,0.1,0c0.5,0,0.9-0.3,1.1-0.7l4.1-7.5l7.7,4.3
	c0.5,0.3,1,0.2,1.4-0.1c0.4-0.3,0.6-0.9,0.4-1.4l-6.3-22.3l26.6-7.6l6,21.3c0.2,0.7,0.9,1.1,1.6,0.9c0.7-0.2,1.1-0.9,0.9-1.6
	L135,0.9c-0.1-0.3-0.3-0.6-0.6-0.8c-0.3-0.2-0.7-0.2-1-0.1L61.3,20.6c-0.3,0.1-0.6,0.3-0.8,0.6c-0.2,0.3-0.2,0.7-0.1,1L76,77.1
	c0.2,0.6,0.7,0.9,1.2,0.9c0.1,0,0.2,0,0.4-0.1C78.3,77.8,78.7,77.1,78.5,76.4z"/>
<path class="st1" d="M27.8,54l-4.8,1.4c-0.7,0.2-1.1,0.9-0.9,1.6c0.2,0.6,0.7,0.9,1.2,0.9c0.1,0,0.2,0,0.4,0l4.8-1.4
	c0.7-0.2,1.1-0.9,0.9-1.6C29.2,54.2,28.4,53.8,27.8,54z"/>
<path class="st1" d="M55.8,47.4c-0.2-0.7-0.9-1.1-1.6-0.9l-21.5,6.1c-0.7,0.2-1.1,0.9-0.9,1.6c0.2,0.6,0.7,0.9,1.2,0.9
	c0.1,0,0.2,0,0.4,0L54.9,49C55.5,48.8,55.9,48.1,55.8,47.4z"/>
<path class="st1" d="M40.6,65.4l-2.9,0.8c-0.7,0.2-1.1,0.9-0.9,1.6c0.2,0.6,0.7,0.9,1.2,0.9c0.1,0,0.2,0,0.4,0l2.9-0.8
	c0.7-0.2,1.1-0.9,0.9-1.6C42,65.6,41.3,65.2,40.6,65.4z"/>
<path class="st1" d="M59.7,61.4c-0.2-0.7-0.9-1.1-1.6-0.9l-11.9,3.4c-0.7,0.2-1.1,0.9-0.9,1.6c0.2,0.6,0.7,0.9,1.2,0.9
	c0.1,0,0.2,0,0.4,0L58.8,63C59.5,62.8,59.9,62,59.7,61.4z"/>
<path class="st1" d="M56.1,76.1l-6,1.7c-0.7,0.2-1.1,0.9-0.9,1.6c0.2,0.6,0.7,0.9,1.2,0.9c0.1,0,0.2,0,0.4,0l6-1.7
	c0.7-0.2,1.1-0.9,0.9-1.6C57.5,76.3,56.8,75.9,56.1,76.1z"/>
<path class="st1" d="M62.1,74.4l-2.3,0.6c-0.7,0.2-1.1,0.9-0.9,1.6c0.2,0.6,0.7,0.9,1.2,0.9c0.1,0,0.2,0,0.4,0l2.3-0.6
	c0.7-0.2,1.1-0.9,0.9-1.6C63.5,74.6,62.8,74.2,62.1,74.4z"/>
<path class="st1" d="M133.3,74.9l-13.8,13.8l-4.7-4.7c-0.5-0.5-1.3-0.5-1.8,0c-0.5,0.5-0.5,1.3,0,1.8l5.6,5.6
	c0.3,0.3,0.6,0.4,0.9,0.4c0.3,0,0.7-0.1,0.9-0.4l14.7-14.7c0.5-0.5,0.5-1.3,0-1.8C134.6,74.4,133.8,74.4,133.3,74.9z"/>
</svg>
