<?xml version="1.0" encoding="utf-8"?>
<!-- Generator: Adobe Illustrator 25.3.1, SVG Export Plug-In . SVG Version: 6.00 Build 0)  -->
<svg version="1.1" id="Capa_1" xmlns="http://www.w3.org/2000/svg" xmlns:xlink="http://www.w3.org/1999/xlink" x="0px" y="0px"
	 viewBox="0 0 88.7 88.5" style="enable-background:new 0 0 88.7 88.5;" xml:space="preserve">
<style type="text/css">
	.st0{fill:#040505;}
</style>
<path d="M50.3,15.1c2.7,0,3.9-1.3,3.9-2.9c0-3.8-6.5-2.1-6.5-5c0-1,0.9-1.9,2.8-1.9c0.9,0,2,0.3,2.9,0.9l0.4-0.9
	c-0.8-0.6-2.1-0.9-3.3-0.9c-2.7,0-3.9,1.3-3.9,2.9c0,3.9,6.5,2.1,6.5,5c0,1-0.9,1.9-2.8,1.9c-1.4,0-2.7-0.5-3.5-1.3l-0.4,0.9
	C47.2,14.5,48.8,15.1,50.3,15.1z"/>
<path d="M59.7,14.1c-1.7,0-2.9-1.2-2.9-3.1C56.7,9.2,58,8,59.7,8s2.9,1.2,2.9,3.1C62.6,12.9,61.3,14.1,59.7,14.1z M59.7,15.1
	c2.3,0,4-1.7,4-4c0-2.3-1.7-4-4-4s-4,1.7-4,4C55.6,13.4,57.4,15.1,59.7,15.1z"/>
<path d="M69.8,14.1c-1.7,0-2.9-1.2-2.9-3.1c0-1.8,1.3-3.1,2.9-3.1c1.7,0,2.9,1.2,2.9,3.1C72.8,12.9,71.5,14.1,69.8,14.1z M69.9,7
	c-1.3,0-2.3,0.5-3,1.6V3.9h-1.1V15h1v-1.6c0.6,1.1,1.7,1.6,3,1.6c2.2,0,3.9-1.6,3.9-4S72.2,7,69.9,7z"/>
<path d="M77,8.7V7.1h-1V15h1.1v-4c0-1.9,1-2.9,2.7-2.9c0.1,0,0.2,0,0.3,0V7C78.5,7,77.5,7.6,77,8.7z"/>
<path d="M84.9,8c1.5,0,2.7,1.1,2.8,2.6h-5.6C82.2,9,83.4,8,84.9,8z M88.7,11.1c0-2.4-1.6-4-3.8-4c-2.2,0-3.9,1.7-3.9,4
	c0,2.3,1.7,4,4.1,4c1.2,0,2.3-0.5,3-1.3l-0.6-0.7c-0.6,0.7-1.5,1-2.4,1c-1.7,0-3-1.1-3.1-2.7h6.6C88.7,11.3,88.7,11.1,88.7,11.1z"/>
<path d="M73.9,88.5H51.6c-0.4,0-0.7-0.3-0.7-0.7c0-0.4,0.3-0.7,0.7-0.7h22.4c2.6,0,4.8-2.1,4.8-4.8V53.5c0-2.6-2.1-4.8-4.8-4.8H30.8
	c-0.4,0-0.7-0.3-0.7-0.7c0-0.4,0.3-0.7,0.7-0.7h43.1c3.4,0,6.1,2.8,6.1,6.1v28.9C80.1,85.8,77.3,88.5,73.9,88.5z"/>
<path d="M42.8,88.5H11.6c-3.4,0-6.1-2.8-6.1-6.1V53.5c0-3.4,2.8-6.1,6.1-6.1l27.9,0c0.4,0,0.7,0.3,0.7,0.7c0,0.4-0.3,0.7-0.7,0.7
	l-27.9,0c-2.6,0-4.8,2.1-4.8,4.8v28.9c0,2.6,2.1,4.8,4.8,4.8h31.2c0.4,0,0.7,0.3,0.7,0.7C43.5,88.2,43.1,88.5,42.8,88.5z"/>
<path d="M45.1,70c-0.1,0-0.2,0-0.3-0.1L8.2,54.2c-0.3-0.1-0.5-0.5-0.4-0.9c0.1-0.3,0.5-0.5,0.9-0.4l36.3,15.7l31.7-16.2
	c0.3-0.2,0.7,0,0.9,0.3c0.2,0.3,0,0.7-0.3,0.9l-32,16.3C45.3,70,45.2,70,45.1,70z"/>
<path d="M26.4,76.5H13.8c-0.4,0-0.7-0.3-0.7-0.7c0-0.4,0.3-0.7,0.7-0.7h12.6c0.4,0,0.7,0.3,0.7,0.7C27.1,76.2,26.8,76.5,26.4,76.5z"
	/>
<path d="M20.1,80.3h-6.3c-0.4,0-0.7-0.3-0.7-0.7c0-0.4,0.3-0.7,0.7-0.7h6.3c0.4,0,0.7,0.3,0.7,0.7C20.8,80,20.5,80.3,20.1,80.3z"/>
<path class="st0" d="M1.6,32.7c1.2,2.5,4.4,7.9,9.3,7.9c0.1,0,0.1,0,0.2,0c1.4,0,2.9-0.5,4.4-1.4c-0.9-4.9-3.9-7.3-9.4-7.2
	C4.4,32.1,2.7,32.4,1.6,32.7z M10.9,41.9c-6,0-9.6-6.6-10.9-9.4C0,32.3,0,32.1,0.1,32c0.1-0.2,0.2-0.3,0.4-0.4
	c1.1-0.3,3.2-0.8,5.6-0.9c6.3-0.1,10,2.9,10.8,8.8c0,0.3-0.1,0.5-0.3,0.7c-1.9,1.2-3.7,1.8-5.5,1.8C11.1,41.9,11,41.9,10.9,41.9z"/>
<path class="st0" d="M17.8,39.4c1.4,1,2.9,1.7,4.2,1.8c4.9,0.6,8.7-4.4,10.3-6.8c-1.1-0.4-2.7-0.9-4.4-1.1
	C22.5,32.6,19.2,34.6,17.8,39.4z M22.9,42.7c-0.4,0-0.7,0-1.1-0.1c-1.7-0.2-3.5-1-5.2-2.4c-0.2-0.2-0.3-0.4-0.2-0.7
	c1.5-5.8,5.5-8.4,11.7-7.5c2.4,0.3,4.4,1.1,5.5,1.5c0.2,0.1,0.3,0.2,0.4,0.4s0,0.4-0.1,0.6C32.4,37,28.4,42.7,22.9,42.7z"/>
<path class="st0" d="M17,54.2c-0.3,0-0.6-0.3-0.6-0.6V26.3c0-0.3,0.3-0.6,0.6-0.6c0.3,0,0.6,0.3,0.6,0.6v27.3
	C17.6,53.9,17.3,54.2,17,54.2z"/>
<path class="st0" d="M17,1.6c-6.5,0-11.8,5.3-11.8,11.8c0,6.5,5.3,11.8,11.8,11.8c6.5,0,11.8-5.3,11.8-11.8
	C28.8,6.9,23.5,1.6,17,1.6z M17,26.9c-7.4,0-13.4-6-13.4-13.4C3.6,6,9.6,0,17,0c7.4,0,13.4,6,13.4,13.4C30.4,20.8,24.4,26.9,17,26.9
	z"/>
<path class="st0" d="M18.1,23.4v-1.8c2.1-0.4,3.7-2.3,3.7-4.5c0-2.5-2-4.6-4.6-4.6h-0.6c-1.5,0-2.8-1.3-2.8-2.8
	c0-1.5,1.3-2.8,2.8-2.8h3.7c0.5,0,0.9-0.4,0.9-0.9c0-0.5-0.4-0.9-0.9-0.9h-2.2V3.4c0-0.5-0.4-0.9-0.9-0.9c-0.5,0-0.9,0.4-0.9,0.9
	v1.8c-2.4,0.2-4.2,2.1-4.2,4.5c0,2.5,2,4.6,4.6,4.6h0.6c1.5,0,2.8,1.3,2.8,2.8c0,1.5-1.3,2.8-2.8,2.8h0h0h-3.7
	c-0.5,0-0.9,0.4-0.9,0.9c0,0.5,0.4,0.9,0.9,0.9h2.8v1.8c0,0.5,0.4,0.9,0.9,0.9S18.1,23.9,18.1,23.4z"/>
</svg>
